<?xml version="1.0" encoding="UTF-8" standalone="no"?>
<!-- Created with Inkscape (http://www.inkscape.org/) -->

<svg
   width="28.530869mm"
   height="28.573393mm"
   viewBox="0 0 28.530867 28.573394"
   version="1.1"
   id="svg5"
   xml:space="preserve"
   inkscape:export-filename="Desktop/junk/botw/totk/objmap-totk/public/icons/star.svg"
   inkscape:export-xdpi="36.285713"
   inkscape:export-ydpi="36.285713"
   inkscape:version="1.2.2 (b0a8486, 2022-12-01)"
   sodipodi:docname="drawing.svg"
   xmlns:inkscape="http://www.inkscape.org/namespaces/inkscape"
   xmlns:sodipodi="http://sodipodi.sourceforge.net/DTD/sodipodi-0.dtd"
   xmlns="http://www.w3.org/2000/svg"
   xmlns:svg="http://www.w3.org/2000/svg"><sodipodi:namedview
     id="namedview7"
     pagecolor="#ffffff"
     bordercolor="#000000"
     borderopacity="0.25"
     inkscape:showpageshadow="true"
     inkscape:pageopacity="0.0"
     inkscape:pagecheckerboard="false"
     inkscape:deskcolor="#d1d1d1"
     inkscape:document-units="mm"
     showgrid="false"
     inkscape:zoom="9.5097947"
     inkscape:cx="51.210359"
     inkscape:cy="51.999019"
     inkscape:window-width="1818"
     inkscape:window-height="1205"
     inkscape:window-x="6"
     inkscape:window-y="74"
     inkscape:window-maximized="0"
     inkscape:current-layer="layer7"
     showborder="true" /><defs
     id="defs2"><inkscape:path-effect
       effect="fillet_chamfer"
       id="path-effect33057"
       is_visible="true"
       lpeversion="1"
       nodesatellites_param="F,0,0,1,0,0.396875,0,1 @ F,0,0,1,0,0.396875,0,1 @ F,0,0,1,0,0.396875,0,1 @ F,0,0,1,0,0.396875,0,1 @ F,0,0,1,0,0.396875,0,1 @ F,0,0,1,0,0.396875,0,1 @ F,0,0,1,0,0.396875,0,1 @ F,0,0,1,0,0.396875,0,1 | F,0,0,1,0,0.396875,0,1 @ F,0,0,1,0,0.396875,0,1 @ F,0,0,1,0,0.396875,0,1 @ F,0,0,1,0,0.396875,0,1"
       unit="px"
       method="auto"
       mode="F"
       radius="1.5"
       chamfer_steps="1"
       flexible="false"
       use_knot_distance="true"
       apply_no_radius="true"
       apply_with_radius="true"
       only_selected="false"
       hide_knots="false" /></defs><g
     inkscape:groupmode="layer"
     id="layer9"
     inkscape:label="Martini"
     transform="translate(0.48641002,-0.29464716)"><rect
       style="display:inline;fill:#c4b577;fill-opacity:1;stroke-width:0.260704"
       id="rect364-9-7-4"
       width="28.530869"
       height="28.573391"
       x="-0.48641002"
       y="0.29464716"
       ry="6.3516469"
       inkscape:label="rect364" /><path
       id="path33048"
       style="display:inline;fill:#a88b51;fill-opacity:1;stroke:none;stroke-width:0.165;stroke-dasharray:none;stroke-opacity:1"
       d="M 4.5250189,5.2927406 12.26564,14.994137 a 1.1489106,1.1489106 70.47083 0 1 0.250798,0.707089 l 0.04875,5.91181 a 0.78778303,0.78778303 116.26596 0 1 -0.313705,0.635683 l -3.4278143,2.582637 a 0.13277579,0.13277579 71.502171 0 0 0.079898,0.238821 h 9.9177449 a 0.13159666,0.13159666 108.3446 0 0 0.07863,-0.237122 l -3.620607,-2.697656 a 0.8117682,0.8117682 62.743295 0 1 -0.326579,-0.63391 l -0.122349,-5.828242 a 1.0672976,1.0672976 109.19506 0 1 0.244609,-0.702618 L 23.082822,5.2883433 A 0.18678596,0.18678596 64.796365 0 0 22.938886,4.9825138 l -18.2645181,0 A 0.19106309,0.19106309 115.70704 0 0 4.5250189,5.2927406 Z M 8.2359076,6.6237572 H 19.461062 a 0.18564219,0.18564219 64.931694 0 1 0.142494,0.3046313 L 18.137245,8.6843563 A 0.84472702,0.84472702 155.02876 0 1 17.485991,8.9876429 L 10.044064,8.962427 A 0.81226974,0.81226974 26.234272 0 1 9.404351,8.6471739 L 8.0818726,6.9376656 a 0.19474671,0.19474671 116.1372 0 1 0.154035,-0.3139084 z"
       inkscape:path-effect="#path-effect33057"
       inkscape:original-d="m 4.2774929,4.9825138 8.2356731,10.3218502 0.05529,6.705534 -4.0617679,3.060279 H 19.218183 l -4.257105,-3.1719 -0.139009,-6.621818 8.513692,-10.2939452 z M 7.8390326,6.6237572 H 19.857937 L 17.882864,8.9889876 9.647191,8.9610823 Z" /></g></svg>
