<?xml version="1.0" encoding="UTF-8" standalone="no"?>
<!-- Uploaded to: SVG Repo, www.svgrepo.com, Generator: SVG Repo Mixer Tools -->

<svg
   width="469.36011"
   height="672.70953"
   viewBox="0 0 300.39047 430.5341"
   version="1.1"
   id="svg44"
   sodipodi:docname="smoke-bomb-svgrepo-com.svg"
   inkscape:export-filename="../Desktop/junk/botw/totk/objmap-totk/public/icons/smoke.svg"
   inkscape:export-xdpi="96"
   inkscape:export-ydpi="96"
   xmlns:inkscape="http://www.inkscape.org/namespaces/inkscape"
   xmlns:sodipodi="http://sodipodi.sourceforge.net/DTD/sodipodi-0.dtd"
   xmlns="http://www.w3.org/2000/svg"
   xmlns:svg="http://www.w3.org/2000/svg">
  <defs
     id="defs48" />
  <sodipodi:namedview
     id="namedview46"
     pagecolor="#ffffff"
     bordercolor="#000000"
     borderopacity="0.25"
     inkscape:showpageshadow="2"
     inkscape:pageopacity="0.0"
     inkscape:pagecheckerboard="0"
     inkscape:deskcolor="#d1d1d1"
     showgrid="false"
     inkscape:zoom="0.90975371"
     inkscape:cx="211.04613"
     inkscape:cy="336.35477"
     inkscape:window-width="1306"
     inkscape:window-height="832"
     inkscape:window-x="21"
     inkscape:window-y="46"
     inkscape:window-maximized="0"
     inkscape:current-layer="svg44" />
  <path
     fill="#000000"
     d="m 90.237245,15.005917 c -16.93759,11.427356 -29.09524,27.679516 -33.60296,44.524566 -10.71091,-0.105918 -21.20045,3.050211 -30.07458,9.048931 -23.0305495,15.538122 -29.9395245,46.156816 -16.46524,69.933206 -12.1400285,14.17024 -13.6213425,34.96641 -2.8567395,50.92167 1.42394,2.11057 3.0335195,4.08504 4.8052895,5.89941 0.84027,6.51099 3.1911,12.73536 6.86479,18.17622 12.99671,19.2637 39.24401,24.36184 58.50936,11.364 2.00771,-1.3546 3.89573,-2.87863 5.64341,-4.55537 2.78029,1.63517 5.73938,2.94525 8.81896,3.90442 -12.53214,12.47334 -12.83962,29.36647 0.79481,42.91869 -5.12868,9.01766 -10.51168,14.57229 -4.05373,24.77183 5.28001,8.33917 14.707295,13.00934 25.262715,13.7892 -3.22737,10.07996 -2.19323,20.40432 3.32749,28.58712 6.31436,9.35911 20.70801,12.18407 30.47224,13.73658 -0.7265,12.18292 7.40979,25.15616 21.12351,31.77408 1.27417,0.61388 2.57844,1.16319 3.90786,1.64588 l 15.47957,49.08776 23.14787,-52.24689 c 5.65397,-4.35019 10.46998,-8.16157 16.68317,-11.09285 8.22176,-5.54701 13.60134,-14.48423 15.17974,-24.98249 1.43802,-0.76512 2.83708,-1.60408 4.18416,-2.51292 21.06506,-14.21205 26.64,-42.91379 12.42796,-63.97884 -1.67004,-2.47532 -3.54869,-4.75922 -5.62702,-6.83844 9.5574,-11.22335 13.15435,-26.34854 9.67247,-40.67279 5.69561,-7.12284 9.46474,-15.59013 10.94561,-24.58912 22.84797,-15.60312 31.63007,-45.44086 21.27211,-70.77933 6.53828,-16.98579 4.90874,-35.732604 -4.47177,-51.318864 C 302.61778,66.036824 303.05824,45.299933 292.16332,29.15152 278.53182,8.9469385 251.57172,2.9943245 230.8036,15.077145 215.59683,-0.98976248 190.50434,-4.1974535 171.57223,8.5755475 c -0.86213,0.581659 -1.70662,1.194838 -2.5307,1.8364725 -19.28711,-15.2453135 -51.57331,-13.7781275 -78.804285,4.593897 z m 8.57947,12.71646 C 122.14239,11.985155 150.40707,11.192517 163.16239,25.918089 l 0.45919,0.532203 c -12.99348,-2.117702 -26.32834,0.864576 -37.25149,8.331117 -14.1573,9.699056 -22.63343,25.80773 -22.6166,42.982265 3.00448,-12.51307 10.5364,-23.477314 21.12432,-30.75074 23.52535,-16.105966 55.47887,-10.06856 71.37007,13.484902 5.72632,8.498268 8.7869,18.53631 8.78993,28.82709 3.42813,-14.142012 0.77791,-29.047379 -7.30042,-41.059154 -6.18247,-9.125021 -15.1287,-15.99645 -25.52086,-19.601959 2.43527,-2.694912 4.82975,-5.191013 7.93461,-7.372634 14.03204,-9.467054 33.14191,-5.772014 42.63873,8.225472 l 4.90723,7.280628 c 3.06449,-2.55971 5.92704,-5.125516 9.0649,-7.358353 14.05276,-9.481036 33.20105,-5.761247 42.6832,8.293178 8.04815,11.928936 6.82507,27.60621 -2.9754,38.12436 l -4.36519,4.686992 c 1.75477,2.3506 3.49013,4.6009 5.1069,6.92396 8.50564,12.607044 9.82747,28.417814 3.53134,42.295624 l -1.48105,3.26709 1.55689,3.23201 c 9.28936,19.2703 2.90088,42.8416 -14.8632,54.82656 -1.66538,1.07896 -3.73435,2.29993 -5.58747,3.38491 l -0.35003,3.9154 c -0.88755,8.68471 -6.20865,18.76708 -13.49754,26.04546 4.74011,13.48042 3.04283,26.05893 -8.56922,38.85363 l -8.4864,6.5941 8.99437,5.88266 c 3.42262,2.23784 6.3611,5.14011 8.64123,8.53472 9.48104,14.05277 5.76235,33.19911 -8.29125,42.6807 -2.84292,1.90116 -6.75632,3.52089 -10.29363,4.88809 -0.36034,9.33025 -1.09585,15.21145 -9.07055,22.60511 -6.48686,4.25106 -14.58253,7.72137 -20.54908,14.02919 l -8.28118,18.69366 -3.88723,-12.32357 -1.50704,-5.90626 c -3.54798,-0.86572 -6.46586,-1.4376 -9.74108,-2.98434 -9.433,-4.5517 -14.76221,-13.86495 -11.63888,-20.3354 1.07902,-2.24556 1.03482,-4.86868 -0.11924,-7.0766 -2.05123,-3.90214 -5.61412,-4.45381 -11.52127,-5.36724 -5.25619,-0.81218 -19.21403,-2.96974 -22.26662,-7.49428 -4.33839,-6.43035 -3.01439,-15.98614 3.37851,-24.34402 l 13.85887,-18.12371 -21.99312,6.07072 c -10.14265,2.79822 -19.49829,0.45133 -23.8378,-5.98067 -2.148675,-3.31528 6.40278,-14.20069 7.14067,-19.20047 -10.032505,-9.29697 -13.438115,-20.33989 -1.95141,-32.17785 2.94656,-1.96747 7.05248,-3.48065 10.71929,-4.80252 -0.14872,-6.08683 -0.0939,-11.92738 0.79665,-18.11342 l -9.62425,1.44603 c -7.74715,1.17316 -15.619485,-1.10529 -21.542445,-6.23493 l -6.35407,-5.50228 c -3.74184,5.21218 -6.4502,9.73193 -11.68492,13.41082 -12.25223,8.26627 -28.94607,5.02328 -37.21178,-7.22812 -2.72373,-4.0371 -4.2967,-8.72514 -4.54891,-13.56358 l -0.16816,-3.22803 c -2.7057,-2.37973 -4.84624,-4.22396 -6.95467,-7.28291 -7.67453,-11.37518 -5.56456,-26.6158 4.90503,-35.45023 l 5.52051,-4.66064 c -1.82602,-2.44728 -3.67676,-4.84893 -5.37646,-7.27166 -11.5901,-17.17883 -7.04346,-40.583524 10.13537,-52.173634 7.80065,-5.262892 17.22083,-7.401182 26.52538,-6.018652 l 7.6818,1.14077 1.04722,-7.6971 c 2.04476,-15.045839 12.66904,-30.372042 28.42203,-41.000177 z m -40.18889,96.521893 c -11.14421,7.69402 -16.64696,22.63367 -13.85658,37.61977 3.73685,20.06704 20.923,33.69848 38.38675,30.44701 0.65955,-0.12606 1.31444,-0.27582 1.96369,-0.44907 -13.86523,-1.11974 -25.71521,-12.91111 -28.6325,-28.49089 -3.45823,-18.57082 6.83981,-36.06531 23.00152,-39.07536 0.40291,-0.0599 0.80729,-0.11031 1.21286,-0.1512 -4.15784,7.22549 -4.55715,15.41012 -1.07981,22.13329 0.2773,0.53152 0.57761,1.05118 0.9003,1.55792 0.4544,-10.13835 7.78505,-20.32203 18.69943,-25.97711 10.677245,-5.5112 22.830395,-5.68439 31.208785,-0.44473 -0.0811,-0.18993 -0.16498,-0.37863 -0.25164,-0.56608 -6.17327,-11.90129 -22.49371,-15.85669 -36.453775,-8.83486 -1.44058,0.72406 -2.82412,1.55177 -4.13556,2.4741 -2.42881,1.71634 -4.5848,3.74091 -6.38762,5.9984 -4.47092,-1.37083 -9.09926,-1.65885 -13.57894,-0.84499 -3.91912,0.73031 -7.6481,2.29143 -10.99691,4.6038 z m 119.297915,87.53617 c -15.13274,9.70788 -22.03799,26.6885 -16.88236,41.51528 0.77802,2.1973 1.80835,4.29947 3.07557,6.27508 -0.0378,-0.11308 -0.0748,-0.22642 -0.11116,-0.33998 -4.80489,-16.84714 7.08464,-35.0062 26.55566,-40.55886 19.47132,-5.55465 39.15202,3.60098 43.95656,20.44896 1.23998,4.39792 1.3674,9.05438 0.37355,13.65071 4.44559,-8.37643 5.31641,-17.66475 2.43773,-26.00129 -6.33803,-18.22702 -28.55379,-27.0645 -49.6201,-19.739 -3.44832,1.19856 -6.74013,2.79615 -9.78545,4.7491 z"
     id="path42"
     sodipodi:nodetypes="scccsccccccscscccccccsscccccscscsscccccccccccccscccccccccccccccccccccccccsccccccccccccsccccccscccsccccccccccccccccccccccccccc"
     style="stroke-width:0.99968;stroke-dasharray:none" />
  <path
     style="fill:#c2c2c2;fill-opacity:1;stroke-width:1.09885;stroke-dasharray:none"
     d="m 188.29913,378.24028 c -1.29023,-4.31988 -2.45272,-8.21171 -2.58332,-8.64853 -0.1306,-0.43681 -2.43747,-1.46244 -5.1264,-2.27918 -6.21196,-1.88682 -11.01132,-5.12379 -14.18259,-9.56555 -2.17394,-3.04486 -2.48507,-3.99366 -2.42229,-7.38662 0.0396,-2.14115 0.305,-5.31756 0.58974,-7.05869 0.43919,-2.68565 0.26478,-3.53907 -1.15021,-5.6279 -1.96489,-2.90064 -3.64197,-3.50947 -16.25653,-5.90164 -14.55567,-2.76026 -18.40992,-5.4518 -19.31581,-13.48882 -0.72362,-6.42003 1.93681,-11.70229 13.4559,-26.71651 3.43095,-4.47197 6.11061,-8.25835 5.9548,-8.41416 -0.15581,-0.15582 -5.95062,1.28435 -12.87736,3.20035 -13.29903,3.67866 -18.95024,4.29669 -24.38891,2.66722 -3.69787,-1.10791 -8.34226,-5.16317 -8.34226,-7.28408 0,-0.91271 1.58284,-4.89624 3.51743,-8.85227 1.93459,-3.95603 3.51744,-7.6603 3.51744,-8.23171 0,-0.57141 -1.24379,-2.38828 -2.76397,-4.03748 -4.26096,-4.6226 -5.962838,-8.41543 -5.985308,-13.33899 -0.03629,-7.94879 4.939138,-14.86059 13.021948,-18.08998 l 4.52092,-1.80627 0.37405,-9.04603 c 0.20574,-4.97532 0.29088,-9.17194 0.1892,-9.32582 -0.10167,-0.15389 -3.03342,0.12851 -6.515,0.62754 -11.553122,1.65597 -17.289371,0.0319 -26.267746,-7.43707 -2.630918,-2.18862 -4.870144,-3.86314 -4.976051,-3.72115 -9.662681,12.95449 -13.667968,16.03973 -22.739649,17.51619 -4.944741,0.80478 -12.37584,-0.59065 -16.728074,-3.14123 -4.362238,-2.55644 -9.887547,-8.9262 -11.484557,-13.23978 -0.751573,-2.03003 -1.589224,-5.52004 -1.861448,-7.75558 -0.441037,-3.62186 -0.858488,-4.42815 -3.832291,-7.40195 -1.835537,-1.83554 -4.2537,-5.22985 -5.373696,-7.54293 -1.800027,-3.7175 -2.039288,-4.98262 -2.06162,-10.90105 -0.0233,-6.17522 0.154653,-7.06113 2.290175,-11.40125 1.701401,-3.45783 3.649349,-5.9232 7.3454,-9.29652 l 5.029962,-4.59075 -2.258496,-3.00215 c -6.582844,-8.7504 -9.364997,-16.09899 -9.393087,-24.81026 -0.03476,-10.77862 3.299108,-18.986454 10.756977,-26.483222 9.573767,-9.623706 21.322708,-12.785197 37.283038,-10.032404 l 2.538617,0.437856 0.495949,-4.472704 c 0.74576,-6.725696 1.728218,-10.225226 4.647354,-16.553898 3.186118,-6.907499 5.769229,-10.763448 10.983033,-16.394984 15.50772,-16.750181 39.37183,-26.207159 57.88733,-22.939848 6.57471,1.160195 13.48411,4.212096 16.37531,7.233012 l 1.88903,1.973791 -7.52362,0.05953 c -11.96418,0.09467 -22.21807,3.668832 -31.19553,10.873717 -11.70044,9.390221 -19.66826,24.687993 -19.55473,37.544018 l 0.0378,4.284263 1.25335,-3.869178 c 2.58462,-7.978938 6.51635,-14.457756 12.51496,-20.622545 9.82713,-10.099374 22.38697,-15.380014 36.51198,-15.351043 23.23746,0.04766 43.09282,15.648753 48.83626,38.372455 0.77355,3.060506 1.40644,7.096762 1.40644,8.969459 0,4.366215 1.09488,4.405703 1.75589,0.0633 0.94163,-6.185702 0.47801,-16.438816 -1.00318,-22.18567 -3.55307,-13.785583 -13.41129,-26.103862 -25.88137,-32.339881 l -6.48626,-3.243638 3.67231,-3.319367 c 7.06054,-6.381963 16.96246,-9.577815 25.18695,-8.129101 9.31074,1.640055 15.90017,6.073487 22.09734,14.867302 l 3.93721,5.586919 5.77186,-4.564273 c 6.52898,-5.162988 11.42734,-7.284778 18.11126,-7.845133 15.64285,-1.31144 29.6141,9.766355 32.42207,25.707432 1.53164,8.695259 -1.81317,18.622633 -8.74337,25.950294 -2.64792,2.799795 -3.41741,4.05655 -2.9225,4.773145 8.33655,12.070739 10.40662,16.592525 11.63317,25.411116 0.9299,6.6857 -0.1058,14.13002 -2.96708,21.32653 l -2.08277,5.23848 1.75951,3.92071 c 5.52169,12.30396 5.12236,26.44158 -1.07531,38.0696 -2.95366,5.54165 -9.51053,12.60097 -15.00375,16.15351 -4.31772,2.79232 -4.44904,2.96711 -4.8987,6.51952 -1.02592,8.10501 -5.32466,17.11396 -11.38137,23.85214 l -2.35026,2.61468 1.05391,2.9871 c 4.65369,13.18996 -0.96492,29.28077 -13.58672,38.91018 -2.41823,1.84492 -4.39679,3.44261 -4.39679,3.55041 0,0.10781 2.6628,1.96778 5.91734,4.13327 10.1053,6.72383 15.01828,13.55732 16.64597,23.15293 2.20623,13.00614 -5.80428,27.03233 -18.52645,32.43932 l -4.6208,1.96386 -0.4592,4.31668 c -1.1665,10.96565 -4.59526,15.8908 -15.58192,22.38223 -11.21281,6.62505 -13.50075,9.08305 -17.88945,19.21924 -2.0103,4.64301 -3.69344,8.49402 -3.74031,8.5578 -0.0469,0.0638 -1.14087,-3.41848 -2.4311,-7.73836 z M 163.7465,253.43123 c -0.4017,-7.2489 1.12604,-12.79931 5.22111,-18.96879 6.58496,-9.92067 20.36752,-17.06049 32.93319,-17.06049 12.00847,0 24.04206,6.34803 29.41578,15.51757 2.69774,4.60336 4.23061,11.31868 3.74962,16.42669 l -0.40123,4.26089 1.69076,-3.46969 c 2.49558,-5.12132 3.52332,-12.25539 2.583,-17.93001 -2.26608,-13.67543 -12.73248,-24.0646 -27.368,-27.16607 -17.99615,-3.81364 -38.57271,4.98648 -47.57422,20.34638 -3.55741,6.07026 -4.82175,11.39982 -4.525,19.07406 0.22276,5.7605 0.61074,7.76763 2.14172,11.07992 1.02833,2.22478 2.00573,4.04505 2.17202,4.04505 0.16629,0 0.14885,-2.76998 -0.0388,-6.15551 z M 85.073235,192.13078 c 0.212352,-0.34358 -0.958278,-0.82629 -2.601376,-1.07269 -7.025619,-1.05355 -16.587219,-7.98644 -20.706852,-15.01403 -6.608409,-11.27315 -7.282538,-24.16781 -1.846151,-35.31298 3.877818,-7.94994 10.381624,-13.55011 18.450501,-15.88699 1.454822,-0.42134 1.612493,-0.30711 1.136089,0.82305 -2.958841,7.0192 -3.271398,12.84521 -1.012966,18.88142 0.803354,2.14715 1.708845,3.75052 2.012211,3.56303 0.30336,-0.18749 0.752333,-1.80568 0.997722,-3.59599 1.322208,-9.64654 12.009101,-20.8861 23.415247,-24.62615 6.05482,-1.98536 17.64855,-1.86236 22.23764,0.23593 1.83785,0.84034 3.34156,1.36514 3.34156,1.16621 0,-1.21403 -2.42021,-4.63894 -4.68051,-6.6235 -6.75651,-5.93231 -17.31557,-7.90676 -26.829688,-5.01694 -5.067596,1.53924 -12.676179,6.10542 -14.746233,8.84975 -1.060512,1.40596 -1.494227,1.50471 -4.022759,0.916 -1.558752,-0.36293 -5.143046,-0.49518 -7.965107,-0.2939 -12.788534,0.91212 -23.555483,10.74851 -27.237063,24.88305 -1.341484,5.15031 -1.325552,14.76969 0.03402,20.53739 2.869808,12.17462 12.005426,22.88457 22.836986,26.77246 4.091802,1.46871 16.421351,2.0533 17.186733,0.81488 z"
     id="path2552" />
</svg>
