<?xml version="1.0" encoding="UTF-8" standalone="no"?>
<!-- Created with Inkscape (http://www.inkscape.org/) -->

<svg
   width="28.530869mm"
   height="28.573393mm"
   viewBox="0 0 28.530867 28.573394"
   version="1.1"
   id="svg5"
   xml:space="preserve"
   inkscape:export-filename="Desktop/junk/botw/totk/objmap-totk/public/icons/star.svg"
   inkscape:export-xdpi="36.285713"
   inkscape:export-ydpi="36.285713"
   inkscape:version="1.2.2 (b0a8486, 2022-12-01)"
   sodipodi:docname="drawing.svg"
   xmlns:inkscape="http://www.inkscape.org/namespaces/inkscape"
   xmlns:sodipodi="http://sodipodi.sourceforge.net/DTD/sodipodi-0.dtd"
   xmlns="http://www.w3.org/2000/svg"
   xmlns:svg="http://www.w3.org/2000/svg"><sodipodi:namedview
     id="namedview7"
     pagecolor="#ffffff"
     bordercolor="#000000"
     borderopacity="0.25"
     inkscape:showpageshadow="true"
     inkscape:pageopacity="0.0"
     inkscape:pagecheckerboard="false"
     inkscape:deskcolor="#d1d1d1"
     inkscape:document-units="mm"
     showgrid="false"
     inkscape:zoom="9.5097947"
     inkscape:cx="51.210359"
     inkscape:cy="51.999019"
     inkscape:window-width="1818"
     inkscape:window-height="1205"
     inkscape:window-x="6"
     inkscape:window-y="74"
     inkscape:window-maximized="0"
     inkscape:current-layer="layer7"
     showborder="true" /><defs
     id="defs2"><inkscape:path-effect
       effect="fillet_chamfer"
       id="path-effect32724"
       is_visible="true"
       lpeversion="1"
       nodesatellites_param="F,0,0,1,0,0.52916667,0,1 @ F,0,0,1,0,0.52916667,0,1 @ F,0,0,1,0,0.52916667,0,1 @ F,0,0,1,0,0.52916667,0,1 @ F,0,0,1,0,0.52916667,0,1 @ F,0,0,1,0,0.52916667,0,1 @ F,0,0,1,0,0.52916667,0,1 @ F,0,0,1,0,0.52916667,0,1 @ F,0,0,1,0,0.52916667,0,1 @ F,0,0,1,0,0.52916667,0,1"
       unit="px"
       method="auto"
       mode="F"
       radius="2"
       chamfer_steps="1"
       flexible="false"
       use_knot_distance="true"
       apply_no_radius="true"
       apply_with_radius="true"
       only_selected="false"
       hide_knots="false" /></defs><g
     inkscape:groupmode="layer"
     id="layer8"
     inkscape:label="Star"
     transform="translate(0.21522731,0.52862161)"><rect
       style="display:inline;fill:#c4b577;fill-opacity:1;stroke-width:0.260704"
       id="rect364-9-7"
       width="28.530869"
       height="28.573391"
       x="-0.21522731"
       y="-0.52862161"
       ry="6.3516469"
       inkscape:label="rect364" /><path
       style="display:inline;fill:#a88b51;fill-opacity:1;stroke:none;stroke-width:0.165;stroke-dasharray:none;stroke-opacity:1"
       d="m 13.983927,2.832621 2.636557,7.1040521 a 0.76082703,0.76082703 34.819195 0 0 0.713287,0.4961019 h 7.399612 a 0.18895861,0.18895861 70.349008 0 1 0.119688,0.335178 l -6.080946,4.977549 a 0.76629288,0.76629288 106.07084 0 0 -0.241079,0.836834 l 2.306308,6.870368 a 0.20265336,0.20265336 140.48847 0 1 -0.292012,0.240814 L 14.14893,20.069696 a 0.89582817,0.89582817 178.96289 0 0 -0.911081,0.01649 L 7.267106,23.760492 A 0.21673738,0.21673738 36.119353 0 1 6.9430752,23.524037 L 8.6373518,16.650114 A 0.85566666,0.85566666 72.112475 0 0 8.3608823,15.79351 L 2.6567054,10.942523 a 0.1975732,0.1975732 109.90479 0 1 0.1260327,-0.348071 l 7.3440199,-0.07296 A 0.77855203,0.77855203 145.22765 0 0 10.845746,10.0223 L 13.60996,2.8304577 a 0.19988193,0.19988193 0.33142686 0 1 0.373967,0.00216 z"
       id="path32653"
       sodipodi:nodetypes="ccccccccccc"
       inkscape:path-effect="#path-effect32724"
       inkscape:original-d="m 13.799807,2.3365191 3.004797,8.0962559 h 8.457946 l -6.899904,5.647905 2.643108,7.87368 -7.317236,-4.145506 -6.8720812,4.228973 1.9475534,-7.901503 -6.5103927,-5.536615 8.4023015,-0.08347 z" /></g></svg>
